<svg xmlns="http://www.w3.org/2000/svg" viewBox="0 0 120 120" width="120" height="120">
  <defs>
    <linearGradient id="bg" x1="0%" y1="0%" x2="100%" y2="100%">
      <stop offset="0%" stop-color="#3b82f6"/>
      <stop offset="100%" stop-color="#8b5cf6"/>
    </linearGradient>
    <linearGradient id="inner" x1="0%" y1="0%" x2="100%" y2="100%">
      <stop offset="0%" stop-color="#60a5fa"/>
      <stop offset="100%" stop-color="#a78bfa"/>
    </linearGradient>
  </defs>
  <rect width="120" height="120" rx="28" fill="url(#bg)"/>
  <!-- Grid of 4 panels -->
  <rect x="22" y="22" width="34" height="34" rx="6" fill="white" opacity="0.95"/>
  <rect x="64" y="22" width="34" height="34" rx="6" fill="white" opacity="0.7"/>
  <rect x="22" y="64" width="34" height="34" rx="6" fill="white" opacity="0.7"/>
  <rect x="64" y="64" width="34" height="34" rx="6" fill="white" opacity="0.45"/>
  <!-- Accent lines inside panels -->
  <rect x="28" y="32" width="22" height="3" rx="1.5" fill="url(#inner)" opacity="0.8"/>
  <rect x="28" y="39" width="16" height="3" rx="1.5" fill="url(#inner)" opacity="0.5"/>
  <rect x="28" y="46" width="19" height="3" rx="1.5" fill="url(#inner)" opacity="0.3"/>
  <circle cx="81" cy="39" r="10" fill="none" stroke="url(#inner)" stroke-width="2.5" opacity="0.8"/>
  <rect x="28" y="74" width="22" height="3" rx="1.5" fill="url(#inner)" opacity="0.6"/>
  <rect x="28" y="81" width="14" height="3" rx="1.5" fill="url(#inner)" opacity="0.4"/>
  <rect x="28" y="88" width="18" height="3" rx="1.5" fill="url(#inner)" opacity="0.25"/>
  <!-- Agent icon in bottom-right panel -->
  <circle cx="81" cy="78" r="7" fill="url(#inner)" opacity="0.5"/>
  <circle cx="77" cy="76" r="1.5" fill="white" opacity="0.8"/>
  <circle cx="85" cy="76" r="1.5" fill="white" opacity="0.8"/>
  <path d="M77 82 Q81 85 85 82" fill="none" stroke="white" stroke-width="1.5" opacity="0.6"/>
</svg>
